<svg width="20" height="6" viewBox="0 0 20 6" fill="none" xmlns="http://www.w3.org/2000/svg">
<path d="M12.0679 0L12.302 0.135626H12.1032L12.0679 0ZM12.8364 0C13.1057 0.0287693 13.3708 0.0472618 13.6401 0.0678113V0.0349306C13.8555 0.0472603 14.0648 0.0595915 14.276 0.0678113H14.3092V0.100692H12.6686C12.7266 0.0678128 12.7826 0.0369891 12.8364 0ZM11.4652 0.0369883H11.5998V0.0698651C11.5542 0.0616453 11.5128 0.049318 11.4652 0.0369883ZM12.4014 0.0369883H12.4387V0.0698651H12.3704C12.3822 0.0604323 12.3927 0.0493627 12.4014 0.0369883ZM10.9991 0.0678113H11.1317V0.100692L10.9991 0.0678113ZM14.477 0.0678113C14.6447 0.080141 14.8125 0.0924722 14.9782 0.100692H15.0114V0.13768C14.8332 0.117131 14.6551 0.0924707 14.477 0.0678113ZM15.1129 0.0678113C15.123 0.0803256 15.1349 0.0913911 15.1481 0.100692L15.1129 0.0678113ZM15.3469 0.0678113C15.4132 0.080141 15.4795 0.0924722 15.5479 0.100692V0.13768C15.458 0.140896 15.3686 0.151895 15.2807 0.170557L15.3469 0.0678113ZM15.8482 0.100692H16.0491V0.205492C15.9717 0.180997 15.8936 0.158387 15.8151 0.13768H15.8482V0.100692ZM10.1623 0.13768L10.2969 0.302076H10.1954C10.1836 0.247438 10.1725 0.192634 10.1623 0.13768ZM11.1317 0.13768H11.1669V0.170557H11.1317V0.13768ZM9.9282 0.168503H10.0628V0.205492L9.9282 0.168503ZM9.76041 0.205492C9.79563 0.256865 9.8267 0.314404 9.86191 0.369887L9.69413 0.332899V0.300022C9.71475 0.267522 9.73687 0.235977 9.76041 0.205492ZM16.5173 0.205492C16.5504 0.221931 16.5836 0.246593 16.6188 0.265088L16.5173 0.205492ZM12.1674 0.265088C12.2691 0.283522 12.3633 0.330605 12.4387 0.400714C12.447 0.408934 12.4594 0.425371 12.4719 0.433591V0.369887C13.0974 0.390437 13.4972 0.402768 13.6753 0.402768H13.7085V0.435649H13.6753C13.4868 0.460308 13.2983 0.478803 13.1078 0.499352V0.536341L13.1741 0.733613H13.2072L13.3729 0.637033C13.9135 0.52401 14.1683 0.865132 14.1766 0.865132V0.932943H14.245V0.900066H14.2781C14.2781 0.684297 14.5122 0.702792 14.5122 0.634979H14.479L14.5785 0.597987C14.568 0.610819 14.5569 0.623166 14.5453 0.634979L14.6468 0.766494L14.68 0.698679C14.7918 0.723338 14.9037 0.741834 15.0135 0.766494V0.729505H15.0466L15.0135 0.696625L15.0797 0.632921V0.665802C15.1004 0.706901 15.1336 0.729505 15.1812 0.729505C15.0715 0.493186 15.0797 0.468525 15.3801 0.468525V0.431537H15.4153C15.4049 0.406878 15.3925 0.388383 15.3801 0.367833L15.5499 0.431537L15.5168 0.468525H15.5499V0.497295C15.4588 0.517844 15.2144 0.606209 15.2144 0.729505L15.4153 0.766494V0.830197C15.3594 0.850747 15.3055 0.877459 15.2475 0.898009L15.3159 1.02953C15.2372 1.09323 15.1605 1.16104 15.0797 1.23091H15.0135V1.19392H15.0466C15.0714 1.14255 15.0922 1.08501 15.1149 1.02953C15.059 1.04186 15.0031 1.05418 14.9472 1.0624H14.914C14.876 1.11561 14.8428 1.17199 14.8146 1.23091C14.7794 1.17954 14.7628 0.930889 14.8477 0.930889H14.883C14.8912 0.91856 14.9057 0.910338 14.9161 0.898009C14.8015 0.874208 14.6892 0.840516 14.5805 0.797317H14.5474C14.6033 0.840471 14.6592 0.889792 14.7172 0.928836V0.996647L14.5826 1.02953L14.651 1.16104H14.6157V1.19392C14.5163 1.21036 14.4148 1.21858 14.3154 1.23091C14.3053 1.18547 14.2943 1.14025 14.2823 1.09528C14.2702 1.08539 14.2591 1.07438 14.2491 1.0624H14.1476C14.1352 1.10556 14.1269 1.15077 14.1165 1.19392H14.0793L13.9135 1.09323H13.8783V1.12611L13.8452 1.3316L14.013 1.36037L13.9467 1.46106H14.1787C14.2346 1.42819 14.2926 1.39736 14.3485 1.36037V1.3316H14.3796C14.4355 1.38298 14.4915 1.44052 14.5474 1.496C14.595 1.43641 14.6365 1.36037 14.7172 1.36037L14.8498 1.56176V1.59875C14.8063 1.59875 14.6033 1.58231 14.247 1.56176V1.66245H14.2802C14.3237 1.68711 14.3713 1.7056 14.4127 1.73026V1.76314L13.9798 1.73026C14.0461 1.7056 14.1145 1.68711 14.1787 1.66245V1.59875L12.8406 1.69533C12.8406 1.75492 12.8716 1.79191 12.9089 1.83096L12.8406 1.99535C12.9545 1.97069 13.0436 1.94809 13.1098 1.92754V2.02823C13.1198 2.0402 13.1309 2.05121 13.143 2.06111L12.0079 2.09399C12.0162 1.96864 12.128 1.7652 12.2751 1.7652L12.3082 1.89261C12.34 1.90818 12.3733 1.92057 12.4076 1.92959L12.4449 1.7652L12.5444 1.69738V1.66451H12.5091C12.2005 1.60491 11.9457 1.79602 11.6744 1.79602V1.85972C11.7386 1.90699 11.8069 1.9522 11.8732 1.99535L11.4072 2.09194V1.85972V1.83096H11.5729V1.76314C11.4279 1.77547 11.285 1.7878 11.1379 1.79602V1.83301H11.1731V1.86178C11.2166 1.87822 11.2622 1.88644 11.3036 1.89466H11.3388L11.2394 2.09604C9.88263 2.20907 8.57558 2.72691 7.29132 2.72691L6.42962 3.10913C5.75621 3.48078 5.11529 3.90764 4.51359 4.38526C4.02681 4.78186 3.69746 5.61411 3.13405 5.82166C2.33242 6.12168 1.20766 5.88537 0.538598 5.48054C0.312817 5.34903 0.00418033 5.11476 3.75589e-05 4.81885C-0.00824799 4.50239 1.3568 2.75979 1.6385 2.75979C2.12114 2.59129 2.65141 2.03234 3.17755 2.03234V1.99946C3.25626 1.9748 3.33497 1.95631 3.41161 1.93165H3.44475C3.60011 1.83096 3.76789 1.75903 3.9481 1.69944H4.01439L3.97917 1.76725C3.72025 2.22962 4.51359 1.81041 4.51359 1.73438H4.5488L4.71866 1.79808C5.12879 1.43641 5.89106 1.33572 6.45448 1.33572C6.57669 1.25557 6.70305 1.17954 6.82319 1.0994V1.06652H6.95783V1.03364L7.39282 0.90212C7.38039 0.889791 7.37003 0.881571 7.3576 0.865132V0.801428C7.3366 0.814421 7.3144 0.825427 7.29132 0.834305L6.92468 0.801428C6.98683 0.754164 7.0469 0.700736 7.12561 0.700736L7.15668 0.832251C7.30582 0.735669 7.37418 0.600044 7.59167 0.600044L7.72631 0.832251H7.89409C7.92931 0.680185 8.09502 0.534283 8.26073 0.534283L8.32908 0.567164V0.600044C8.21516 0.624704 8.10538 0.643196 7.99559 0.667856V0.700736H8.02666L7.99559 0.733613V0.770605C8.19444 0.750056 8.3933 0.727448 8.59629 0.669909C8.66258 0.682239 8.73093 0.69457 8.79515 0.70279C8.965 0.639087 9.13071 0.571274 9.29849 0.501406H9.80184V0.472637C10.0566 0.472637 10.3114 0.460308 10.5703 0.435649H10.6014L10.6387 0.371945L10.7029 0.472637V0.435649C10.7257 0.415099 10.7257 0.392494 10.7029 0.371945L11.7075 0.334953H11.7386L12.041 0.402768V0.369887C12.0804 0.332898 12.1259 0.302077 12.1674 0.265088Z" fill="#434C6D"/>
<path d="M14.009 0.302002L14.1748 0.433517C14.2079 0.404748 14.1955 0.369814 14.1748 0.332825L14.444 0.468451H14.4088V0.497221L13.7066 0.468451V0.431463H13.7398V0.398582H13.9428C13.9552 0.378033 13.9635 0.35543 13.9759 0.330771C13.9863 0.322551 13.9987 0.314332 14.009 0.302002ZM9.25935 0.332825H9.29249L9.32564 0.369813L8.92793 0.433517V0.40064H8.99421V0.367759L9.02736 0.40064H9.19514L9.26142 0.367759L9.25935 0.332825ZM17.3191 0.332825C17.375 0.357484 17.431 0.380091 17.489 0.40064C17.431 0.382146 17.3771 0.357484 17.3191 0.332825ZM14.7133 0.369813H14.7465C14.6574 0.410912 14.5704 0.458177 14.4792 0.497221V0.468451H14.5124V0.431463L14.7133 0.369813ZM8.72493 0.433517L8.75808 0.565036H8.72493V0.532155H8.65658C8.65658 0.491056 8.67936 0.458176 8.72493 0.433517ZM18.0565 0.470505L18.2222 0.499278H18.2575V0.536267C18.1912 0.509552 18.1228 0.491055 18.0565 0.470505ZM11.9356 0.497221L11.9024 0.665728H12.1365V0.597913C12.1676 0.622572 12.2028 0.641068 12.238 0.665728V0.632847H12.2711V0.595859C12.1614 0.54654 12.0516 0.5301 11.9356 0.497221ZM12.4016 0.497221C12.3809 0.544484 12.3581 0.589693 12.3354 0.632847H12.4016V0.665728H12.6357L12.4016 0.497221ZM12.7372 0.497221L12.7724 0.597913C12.7579 0.567088 12.7517 0.53421 12.7372 0.497221ZM12.8366 0.497221V0.565036H12.8035V0.597913C12.8946 0.565033 12.9837 0.53421 13.0728 0.497221H12.8366ZM15.7511 0.497221L15.8816 0.534209H15.8484V0.56709C15.8147 0.545655 15.7822 0.522327 15.7511 0.497221ZM15.9831 0.497221L16.3497 0.565036V0.597913H15.9831V0.497221ZM11.7326 0.534209L11.5337 0.698605V0.665728L11.5669 0.597913H11.5006V0.665728H11.4654V0.729431H11.5337V0.76642L11.7326 0.534209ZM13.2737 0.56709L13.3068 0.634905C13.2954 0.61251 13.2843 0.5899 13.2737 0.56709ZM16.5838 0.56709C16.7163 0.587639 16.8531 0.610245 16.9856 0.634905V0.667782L16.5506 0.59997C16.561 0.585586 16.5755 0.579419 16.5838 0.56709ZM9.36292 0.597913L9.39399 0.665728C9.40642 0.678057 9.41678 0.690385 9.42921 0.698605C9.40403 0.66714 9.38184 0.633433 9.36292 0.597913ZM11.2665 0.597913V0.634905L10.7984 0.76642L10.8315 0.698605H10.7632L8.55508 0.998631C8.26509 1.07466 7.97716 1.15069 7.68717 1.23084L7.72238 1.26372C7.83838 1.24728 7.95024 1.23495 8.05795 1.1959V1.23289C8.04345 1.26988 7.95438 1.43017 8.05795 1.43017L8.09109 1.39729L8.05795 1.3603C8.10314 1.30631 8.14734 1.2515 8.19052 1.1959H8.22366C8.25844 1.17472 8.2923 1.1521 8.32516 1.12809L9.26142 1.06439V1.09726C9.22621 1.10959 9.19514 1.12193 9.162 1.13015V1.16713H9.26142C9.45199 0.986299 9.88698 0.902046 10.1645 0.902046C10.2184 0.887662 10.2743 0.879444 10.3303 0.863004C10.6451 0.83218 11.1236 0.89588 11.2665 0.597913ZM17.0188 0.634905H17.0871C17.0527 0.643998 17.0188 0.654973 16.9856 0.667782L17.0188 0.634905ZM7.58567 0.731485V0.863004H7.68717C7.67494 0.831432 7.66457 0.799182 7.6561 0.76642C7.66522 0.753114 7.67562 0.740726 7.68717 0.729431L7.58567 0.731485ZM12.7372 0.76642C12.7724 0.830123 12.8035 0.897936 12.8366 0.967804V0.930815C12.8118 0.871222 12.7869 0.807519 12.7372 0.76642ZM13.9096 0.76642L14.0753 0.830123C14.0215 0.811629 13.9635 0.786969 13.9096 0.76642ZM6.61626 0.832177C6.68255 0.865056 6.74883 0.895881 6.74883 0.967804C6.32005 1.06028 5.78149 1.09521 5.78149 1.09521L5.91613 1.03151L6.01556 1.12809C6.02763 1.11819 6.03872 1.10718 6.0487 1.09521V1.12809C6.21539 0.991824 6.4086 0.89109 6.61626 0.832177ZM11.8362 0.832177C11.8685 0.845282 11.9018 0.856267 11.9356 0.865058V0.902046H11.9687L11.8362 0.832177ZM18.0897 0.832177H18.1228C18.133 0.844692 18.1448 0.855757 18.158 0.865058C18.1378 0.880436 18.1155 0.89289 18.0917 0.902046L18.0897 0.832177ZM16.3166 0.863004C16.3829 0.899993 16.4491 0.930815 16.5175 0.967804L16.4491 1.12809H16.5817L16.5486 1.09521L16.9504 0.967804C16.9877 1.00068 17.0291 1.03151 17.0851 1.03151V1.06439H17.0519V1.12809H16.7143C16.7143 1.17947 16.7453 1.22878 16.7826 1.26372V1.39523L16.9504 1.35824H16.9836L17.0519 1.19385H17.2508V1.23084C17.2611 1.24317 17.2756 1.25139 17.2839 1.26372L17.1845 1.42811H17.317L17.2839 1.39523L17.52 1.06233H17.5511C17.6858 1.08699 17.8204 1.10548 17.953 1.12603V1.09316L18.4895 1.35824H18.4542C18.3652 1.32948 18.2761 1.29454 18.1891 1.26166C17.9882 1.37057 17.866 1.43839 17.8204 1.45894H17.7852C17.7852 1.1548 17.4165 1.21851 17.4475 1.4425C17.4272 1.47824 17.4165 1.51858 17.4165 1.55963C16.7039 1.49593 15.9893 1.42811 15.2747 1.35824L15.2415 1.32948C15.314 1.22056 15.3534 1.14864 15.3741 1.12398V1.0911C15.3627 1.08113 15.3523 1.07012 15.343 1.05822C15.4756 1.00685 15.6102 0.949311 15.7449 0.893827C15.7449 0.936981 15.7262 0.961638 15.6765 0.961638L15.6434 1.15891C15.5792 1.13015 15.5129 1.0911 15.4424 1.0911V1.12398H15.4756V1.16097L15.4424 1.26166C15.6164 1.24522 15.7946 1.2144 15.9458 1.29454C16.0908 1.24317 16.2358 1.18563 16.3787 1.12603C16.3829 1.05617 16.3476 0.955477 16.3166 0.863004Z" fill="#434C6D"/>
<path d="M16.9856 0.863037H17.0187L17.054 0.930848L16.9856 0.967837V0.863037ZM7.91914 0.900025V0.932902C7.91002 0.946208 7.89962 0.958596 7.88807 0.969891H7.9875C7.98957 0.924682 7.96885 0.900025 7.91914 0.900025ZM10.7632 0.900025L10.8315 1.00072V1.03359H10.8647C10.8781 0.985572 10.9014 0.940809 10.933 0.902079L10.7632 0.900025ZM13.139 0.900025V0.932902H13.1059C13.1411 0.969891 13.1846 1.00072 13.2405 1.00072L13.2737 0.932902H13.2405L13.139 0.900025ZM13.8081 0.900025V1.00072L13.8412 0.967837L13.8081 0.900025ZM15.9168 0.900025C16.0307 0.920575 16.1405 0.943177 16.2503 0.967837V1.03154L15.952 0.967837L15.9168 0.930848V0.900025ZM10.1314 0.967837C10.092 1.00072 10.15 1.03154 10.1977 1.06442C10.1742 1.0332 10.1521 1.00097 10.1314 0.967837ZM10.4628 0.967837C10.4732 1.01921 10.4877 1.07675 10.4959 1.12812V1.16511H10.5291C10.5063 1.09524 10.4897 1.03154 10.4628 0.967837ZM17.3191 0.967837C17.346 0.988386 17.344 0.988386 17.3191 0.967837ZM11.4343 1.00072V1.0973C11.5026 1.08908 11.5669 1.07675 11.6352 1.06442C11.5669 1.04387 11.5006 1.01921 11.4343 1.00072ZM13.5077 1.06442V1.29663H13.4725V1.33362H13.0044L12.9713 1.36239C12.926 1.34199 12.8811 1.32076 12.8366 1.29869V1.33567C12.8035 1.36444 12.7724 1.39938 12.7372 1.43225V1.46514C12.818 1.45692 12.8967 1.44458 12.9713 1.43225L13.2405 1.56377L13.3068 1.46308C13.3959 1.50007 13.485 1.53089 13.574 1.56377V1.53089H13.6403C13.6548 1.4713 13.6672 1.40965 13.7066 1.36239H13.6735L13.5077 1.06442ZM15.6806 1.06442L15.749 1.19594H15.6806V1.06442ZM5.37755 1.09524L5.61369 1.23087L4.50757 1.59665V1.55966H4.54278C4.83527 1.43151 5.11479 1.276 5.37755 1.09524ZM6.64938 1.09524H6.81923V1.12812C6.74052 1.14456 6.66388 1.15278 6.58517 1.16511C6.60795 1.15278 6.62867 1.14456 6.65145 1.12812L6.64938 1.09524ZM9.8621 1.09524L9.82689 1.19594H9.89524L9.8621 1.09524ZM12.5383 1.09524C12.5698 1.11921 12.6023 1.14184 12.6357 1.16306C12.6025 1.14456 12.5715 1.1199 12.5383 1.09524ZM13.1059 1.09524L12.9381 1.19594L13.2737 1.09524H13.1059ZM17.1202 1.09524H17.1865L17.1202 1.16306V1.09524ZM12.2048 1.12812V1.16511L12.1386 1.19799H12.1054C12.1386 1.21443 12.1696 1.22265 12.2048 1.23498H12.2401C12.2587 1.19799 12.2836 1.16717 12.3043 1.13018L12.2048 1.12812ZM11.4343 1.16511V1.29663C11.4736 1.25964 11.513 1.23292 11.5669 1.23292V1.26581L11.6 1.36239H11.6331V1.33362V1.23292V1.19594L11.4343 1.16511ZM11.9024 1.16511L11.8672 1.26581V1.23292L11.9024 1.16511ZM6.3511 1.19594C6.38217 1.21238 6.41531 1.22059 6.44846 1.23292L6.38217 1.26581C6.37127 1.25536 6.3609 1.24439 6.3511 1.23292V1.19594ZM7.45515 1.19594C7.35365 1.23293 7.25423 1.26375 7.15273 1.29663V1.36033C7.2418 1.39732 7.33294 1.42814 7.42201 1.46102C7.40958 1.4528 7.39922 1.44048 7.38887 1.42815L7.62293 1.29663V1.23292C7.567 1.22059 7.50901 1.21238 7.45515 1.19594ZM17.5863 1.29663H17.723V1.33362L17.5863 1.29663ZM17.8245 1.29663V1.33362L17.8577 1.36239H17.8908V1.33362L17.8245 1.29663ZM18.6924 1.29663C18.7007 1.37266 18.7131 1.45281 18.7256 1.52884H18.6924C18.68 1.46103 18.6717 1.39732 18.6551 1.33156C18.6699 1.32262 18.6826 1.31072 18.6924 1.29663ZM12.3353 1.33362C12.3933 1.36239 12.4472 1.39732 12.5031 1.4302L12.47 1.39732L12.3706 1.36033L12.3353 1.33362ZM6.9518 1.36033V1.39732H6.88345V1.4302H7.01809C6.99396 1.40889 6.97178 1.38551 6.9518 1.36033ZM17.4889 1.36033H17.6547C17.7168 1.42404 17.7831 1.48774 17.8224 1.56172L17.4889 1.52884V1.36033ZM11.1671 1.39732V1.52884C11.107 1.52884 11.0676 1.48158 11.0324 1.42815C11.0225 1.44012 11.0114 1.45112 10.9993 1.46102V1.49801L11.0987 1.69529C11.1546 1.68707 11.2106 1.67474 11.2665 1.66241L11.4654 1.4302C11.3639 1.4302 11.2665 1.41376 11.1671 1.39732ZM12.5383 1.39732C12.5818 1.4302 12.6274 1.46102 12.6688 1.49801V1.4302L12.5383 1.39732ZM18.158 1.39732H18.1932L18.2243 1.46102L18.158 1.49801V1.39732ZM6.71566 1.4302C6.66181 1.45486 6.60588 1.47335 6.54788 1.49801V1.53089H6.68252C6.70738 1.49801 6.72809 1.46308 6.74881 1.4302H6.71566ZM10.6327 1.4302L10.3302 1.59871C10.5063 1.57405 10.6865 1.55144 10.8647 1.53089L10.6637 1.56377V1.53089L10.6327 1.4302ZM11.8009 1.4302L11.4654 1.49801V1.53089H11.5006V1.56377C11.5793 1.58432 11.658 1.60693 11.7326 1.63158C11.7457 1.58813 11.7575 1.54427 11.7678 1.50007L11.9024 1.56377H11.9356L11.8009 1.4302ZM4.27557 1.46102L4.44335 1.59665V1.62953L4.0415 1.76105V1.72817L4.27557 1.46102ZM15.2125 1.46102L15.2456 1.49801C15.2364 1.4842 15.2252 1.47175 15.2125 1.46102ZM19.3615 1.46102H19.4609V1.52884H19.4257L19.3615 1.46102ZM15.0447 1.49801C15.4341 1.66652 15.6827 1.53089 16.0493 1.53089L16.184 1.66241H16.2171C16.3041 1.62953 16.3953 1.5987 16.4843 1.56172L16.5506 1.69323L16.853 1.73022V1.7631H16.8178L16.7515 1.9275H16.8178L16.853 1.7631H16.8862V1.79598L17.1202 1.7631H17.1534V1.63158V1.59871H17.1865L17.286 1.69529C17.2538 1.71928 17.2206 1.74191 17.1865 1.7631C17.3522 1.8042 17.5221 1.85968 17.6878 1.85968L17.723 1.83091C17.8224 1.87407 17.9219 1.91928 18.0213 1.95832L18.0565 1.92544L18.0897 1.95832C18.1104 1.98298 18.1332 2.00559 18.1559 2.02614H17.8867V2.05901L17.9529 2.15971C17.8991 2.13505 17.8432 2.11655 17.7852 2.09189C17.7727 2.08367 17.7624 2.07134 17.752 2.05901C17.5179 2.08367 17.2818 2.10217 17.0498 2.12683L17.0146 1.89051C17.002 1.88116 16.9909 1.87009 16.9815 1.85763C16.9131 1.89051 16.3455 2.11039 16.3455 2.02614H16.3103V1.99326C16.3616 1.94268 16.4178 1.89725 16.4781 1.85763V1.82886C16.2316 1.87201 15.9872 1.91722 15.7448 1.95627V1.92339C15.7821 1.88229 15.8505 1.85558 15.9106 1.82681V1.78981H15.8753V1.75694C15.72 1.76927 15.5646 1.7816 15.4072 1.78981H15.372L15.4403 1.8864C15.3968 1.8864 15.2519 1.90284 15.0054 1.92339C14.9929 1.93572 14.9846 1.94805 14.9722 1.95627V1.92339H14.9391C14.9293 1.81367 14.9182 1.70407 14.9059 1.5946C14.9577 1.56172 15.0012 1.52884 15.0447 1.49801ZM18.1911 1.49801L18.2574 1.53089C18.2195 1.59096 18.1743 1.64617 18.1228 1.69529V1.66241H18.0897C18.1192 1.60515 18.1532 1.55019 18.1911 1.49801ZM19.4941 1.49801L19.6598 1.62953H19.5624V1.59665C19.5438 1.56172 19.5168 1.52884 19.4941 1.49801ZM10.1625 1.52884L8.99212 1.79393V1.85763C9.05834 1.87274 9.12544 1.88373 9.19304 1.89051L9.62596 1.7631V1.79598L10.1293 1.7631V1.73022L10.2598 1.56172C10.2308 1.54939 10.1956 1.54117 10.1625 1.52884ZM6.64938 1.56172L6.08182 1.83091V1.96038H6.11496V1.9275C6.13877 1.90594 6.16158 1.88331 6.18332 1.85968L6.08182 1.79598L6.28274 1.85968L6.81716 1.63158V1.56377L6.64938 1.56172ZM8.85955 1.62953L8.52399 1.76105V1.99531C8.65655 1.93983 8.78912 1.88229 8.92583 1.83091C8.90342 1.76389 8.88132 1.69676 8.85955 1.62953ZM18.6924 1.62953H18.7256L18.7566 1.66241C18.7276 1.73022 18.6448 1.73844 18.5909 1.69529V1.66241C18.6241 1.65008 18.6572 1.63775 18.6924 1.62953ZM6.78609 1.66241V1.69529H6.71566V1.73228H6.85031C6.82959 1.70556 6.80681 1.68707 6.78609 1.66241ZM10.3986 1.66241V1.73022C10.4193 1.70556 10.4421 1.68707 10.4649 1.66241H10.3986ZM5.78147 1.69323L5.74833 1.89051V1.9275H5.81254V1.89051C5.87054 1.87407 5.92647 1.84941 5.98239 1.83091V1.79393C5.91399 1.76325 5.84695 1.72965 5.78147 1.69323ZM13.6755 1.7631L13.8433 1.83091H13.8102V1.85968H13.777L13.6755 1.79598V1.7631Z" fill="#434C6D"/>
<path d="M16.0493 1.76306V1.79594C16.0162 1.83293 15.9831 1.85964 15.9499 1.89252H15.9831V1.83293C16.0307 1.83293 16.0763 1.84115 16.1156 1.8617C16.095 1.82788 16.0729 1.79498 16.0493 1.76306ZM13.34 1.83087C13.3835 1.85142 13.4187 1.88225 13.4394 1.92746H13.371V1.96033H13.34V1.83087ZM19.4941 1.83087L19.6598 1.85964V1.89252H19.6266V1.92951H19.5956C19.538 1.90762 19.4806 1.88502 19.4236 1.8617L19.4941 1.83087ZM12.9713 1.85964C13.0085 1.8843 13.0479 1.9028 13.0728 1.92746L12.9713 1.85964ZM5.37755 1.89047C5.18905 1.99527 5.00056 2.09185 4.80999 2.19049L4.50757 2.15761V2.4227C4.54278 2.41448 4.57592 2.40215 4.60907 2.38982C4.76625 2.28064 4.95368 2.22249 5.14556 2.22337V2.19049H5.1787C5.21391 2.13501 5.24705 2.08158 5.27812 2.0261V2.05897C5.34441 2.07952 5.51219 2.0076 5.51219 1.92746C5.46639 1.9187 5.42137 1.90633 5.37755 1.89047ZM11.5006 1.89047V1.92746C11.5105 1.93943 11.5216 1.95043 11.5337 1.96033H11.5669V1.92746C11.5441 1.91924 11.5254 1.90691 11.5006 1.89047ZM7.78657 1.92746C7.70993 2.0076 7.63122 2.08363 7.55458 2.15966C7.56701 2.17199 7.57736 2.18022 7.58565 2.19254V2.22542L7.98957 2.09391V2.0302C7.91914 1.99527 7.85493 1.95828 7.78657 1.92746ZM8.15735 1.92746L8.05793 2.09185H8.12421V2.12884H8.19049C8.25264 2.06514 8.32513 2.01582 8.32513 1.92746H8.15735ZM5.67997 1.99527L5.64683 2.02815V2.06103C5.65681 2.073 5.66791 2.08401 5.67997 2.09391H5.71312C5.70331 2.06063 5.69226 2.02773 5.67997 1.99527ZM9.65911 1.99527L9.52654 2.12679V2.15966H9.55968V2.19254C9.63839 2.20487 9.71918 2.2172 9.79582 2.22542V2.19254H9.8621L9.65911 1.99527ZM13.6755 1.99527L14.0111 2.02815V2.09185H13.978V2.12884C13.7563 2.10418 13.5326 2.08569 13.3089 2.06103L13.6755 1.99527ZM14.3757 2.02815L14.3446 2.12884C14.3549 2.10418 14.3674 2.08569 14.3757 2.06103V2.02815ZM6.91866 2.09185L6.98495 2.36105H7.01809V2.32406C7.03011 2.30366 7.0405 2.28236 7.04916 2.26036C7.00566 2.20487 6.96216 2.15145 6.91866 2.09185ZM15.0447 2.09185L15.2456 2.12884V2.19254L15.0116 2.15966C15.024 2.15144 15.0344 2.13501 15.0447 2.12679V2.09185ZM16.2834 2.12679C16.3704 2.13501 16.4615 2.15144 16.5506 2.15966V2.19254C16.4611 2.17256 16.372 2.15064 16.2834 2.12679ZM18.8913 2.12679H18.9265L18.9596 2.15966L18.8913 2.19254V2.12679ZM18.4563 2.15966H18.4915V2.19254C18.4501 2.19254 18.4335 2.18843 18.4563 2.15966ZM18.9928 2.15966L19.0922 2.22337C19.0591 2.20487 19.0259 2.18021 18.9928 2.15966ZM17.1534 2.22337L17.2528 2.26036V2.32406C17.2217 2.29324 17.1865 2.26036 17.1534 2.22337ZM17.3191 2.26036H17.3522L17.3895 2.29324C17.3667 2.30557 17.344 2.3179 17.3212 2.32612L17.3191 2.26036ZM9.92839 2.42475H9.9636V2.45763H9.89732C9.90869 2.44766 9.91909 2.43665 9.92839 2.42475ZM10.063 2.42475H10.1956V2.55627H10.1625L10.063 2.42475Z" fill="#434C6D"/>
</svg>
